<svg xmlns="http://www.w3.org/2000/svg" width="41.871" height="35.997" viewBox="0 0 41.871 35.997"><path id="Icon_awesome-code" data-name="Icon awesome-code" d="M18.245,35.965,14.255,34.72a.856.856,0,0,1-.536-1.048L17.411,20,22.648.612a.78.78,0,0,1,.975-.577L27.613,1.28a.856.856,0,0,1,.536,1.048L19.22,35.388a.777.777,0,0,1-.975.577Zm-7.458-7.889,2.846-3.263a.888.888,0,0,0-.052-1.209L7.654,18l5.927-5.6a.881.881,0,0,0,.052-1.209L10.787,7.924a.748.748,0,0,0-1.112-.035L.248,17.381a.881.881,0,0,0,0,1.23l9.427,9.5a.743.743,0,0,0,1.112-.035Zm21.4.042,9.427-9.5a.881.881,0,0,0,0-1.23L32.192,7.882a.754.754,0,0,0-1.112.035L28.234,11.18a.888.888,0,0,0,.052,1.209L34.214,18l-5.927,5.6a.881.881,0,0,0-.052,1.209l2.846,3.263a.748.748,0,0,0,1.112.042Z" transform="translate(0.002 -0.003)" fill="#d6b23a"></path></svg>